<svg width="13" height="12" viewBox="0 0 13 12" fill="none" xmlns="http://www.w3.org/2000/svg">
<path d="M6.21359 1.66415C6.31907 1.5588 6.46204 1.49963 6.61111 1.49963C6.76018 1.49963 6.90316 1.5588 7.00863 1.66415L9.07125 3.72676C9.12652 3.77826 9.17085 3.84036 9.20159 3.90937C9.23234 3.97837 9.24887 4.05286 9.2502 4.12839C9.25153 4.20392 9.23764 4.27895 9.20935 4.34899C9.18106 4.41904 9.13894 4.48267 9.08553 4.53608C9.03211 4.5895 8.96848 4.63161 8.89844 4.6599C8.82839 4.6882 8.75337 4.70209 8.67783 4.70076C8.6023 4.69943 8.52781 4.68289 8.45881 4.65215C8.38981 4.6214 8.3277 4.57707 8.2762 4.52181L7.17364 3.41924V9.9371C7.17364 10.0863 7.11438 10.2294 7.00888 10.3349C6.90339 10.4404 6.7603 10.4996 6.61111 10.4996C6.46192 10.4996 6.31884 10.4404 6.21334 10.3349C6.10785 10.2294 6.04858 10.0863 6.04858 9.9371V3.41924L4.94602 4.52181C4.83938 4.62117 4.69834 4.67527 4.55261 4.67269C4.40687 4.67012 4.26783 4.61109 4.16476 4.50802C4.0617 4.40496 4.00266 4.26591 4.00009 4.12017C3.99752 3.97444 4.05161 3.8334 4.15098 3.72676L6.21359 1.66415Z" fill="#6708CC"/>
</svg>
